<?xml version="1.0" encoding="UTF-8"?>
<svg id="Layer_2" data-name="Layer 2" xmlns="http://www.w3.org/2000/svg" xmlns:xlink="http://www.w3.org/1999/xlink" viewBox="0 0 2258.75 1031.15">
  <defs>
    <style>
      .cls-1, .cls-2, .cls-3, .cls-4, .cls-5, .cls-6, .cls-7, .cls-8 {
        fill: none;
      }

      .cls-2 {
        stroke: #ff7ba2;
      }

      .cls-2, .cls-3, .cls-4, .cls-5, .cls-6, .cls-7, .cls-8 {
        stroke-linejoin: round;
        stroke-width: 20px;
      }

      .cls-3 {
        stroke: #aea13a;
      }

      .cls-3, .cls-7, .cls-8 {
        stroke-linecap: round;
      }

      .cls-4, .cls-8 {
        stroke: #1c8cbb;
      }

      .cls-5 {
        stroke-linecap: square;
      }

      .cls-5, .cls-6 {
        stroke: #f9bf42;
      }

      .cls-9 {
        clip-path: url(#clippath-1);
      }

      .cls-7 {
        stroke: #f2672e;
      }

      .cls-10 {
        clip-path: url(#clippath);
      }
    </style>
    <clipPath id="clippath">
      <rect class="cls-1" y="0" width="2258.75" height="1031.15"/>
    </clipPath>
    <clipPath id="clippath-1">
      <rect class="cls-1" y="0" width="2258.75" height="1031.15"/>
    </clipPath>
  </defs>
  <g id="Layer_1-2" data-name="Layer 1">
    <g id="Bistro">
      <g class="cls-10">
        <g class="cls-9">
          <path class="cls-3" d="M1578.18,467.55c3.81.42,7.64-.27,11.34-1.16,3.7-.92,7.4-1.91,11-3.19,7.21-2.52,14.11-5.89,20.73-9.69,6.59-3.85,12.94-8.11,19.22-12.46,6.29-4.34,12.41-8.91,18.47-13.56,12.1-9.32,23.81-19.15,35.4-29.09l17.34-14.98c5.76-5.01,11.61-9.92,17.31-15.01,23-20.11,46.9-39.17,70.94-58l18.05-14.12c6.06-4.64,12.22-9.16,18.49-13.53,12.55-8.7,25.52-16.82,38.91-24.17,6.69-3.68,13.47-7.21,20.36-10.49,3.43-1.69,6.92-3.24,10.39-4.83,3.51-1.51,6.99-3.09,10.53-4.5l10.58-4.38c3.54-1.44,7.1-2.83,10.68-4.15,7.17-2.63,14.44-5,21.82-6.97,7.38-1.98,14.87-3.53,22.42-4.67,3.76-.68,7.56-1.08,11.34-1.58,1.89-.28,3.8-.38,5.7-.58,1.9-.16,3.8-.38,5.71-.5,15.23-1.02,30.57-.86,45.75.86,15.17,1.74,30.23,4.71,44.78,9.35l5.46,1.74,5.39,1.95,2.69.97,2.65,1.08,5.31,2.16,5.22,2.36,2.61,1.18c.86.41,1.71.85,2.56,1.28l5.12,2.58c1.69.9,3.34,1.85,5.02,2.77,13.37,7.4,25.79,16.44,37.19,26.6,11.37,10.2,21.49,21.77,30.33,34.22"/>
          <path class="cls-7" d="M874.48,844.84l-10.93-3.44-5.46-1.72-5.48-1.65-10.97-3.31-11.01-3.16-5.51-1.58-5.53-1.5-11.06-2.99-11.1-2.83c-3.7-.94-7.4-1.89-11.12-2.74l-11.15-2.63c-3.72-.87-7.46-1.63-11.19-2.46-7.45-1.68-14.96-3.08-22.45-4.57-15.02-2.76-30.14-5.02-45.3-6.86-15.17-1.81-30.4-3.09-45.65-3.91-3.82-.17-7.63-.42-11.45-.52l-11.45-.32-11.46-.08c-1.91-.03-3.82-.01-5.73.03l-5.73.09c-15.27.31-30.53,1.1-45.74,2.56-15.2,1.49-30.35,3.55-45.38,6.24-15.04,2.65-29.95,6.08-44.68,10.11-14.72,4.06-29.3,8.69-43.57,14.14-14.27,5.45-28.28,11.56-41.97,18.34l-10.2,5.21-10.04,5.52c-1.68.9-3.33,1.87-4.97,2.85l-4.93,2.92c-1.64.98-3.3,1.93-4.92,2.93l-4.83,3.07c-6.5,4.02-12.77,8.39-19.06,12.71l-9.26,6.75c-3.09,2.24-6.07,4.64-9.07,7-11.93,9.54-23.39,19.65-34.5,30.14-2.77,2.63-5.53,5.26-8.26,7.94l-4.09,4.01c-1.34,1.36-2.65,2.75-3.96,4.14-5.24,5.55-10.39,11.2-15.4,16.96-10.03,11.52-19.54,23.5-28.4,35.93"/>
          <path class="cls-6" d="M2206.71,307.6c8.57,12.64,15.77,26.2,21.57,40.34,5.8,14.13,10.34,28.78,13.52,43.72,6.3,29.91,7.96,60.68,6.4,91.17-.78,15.26-2.43,30.46-4.63,45.57-1.16,7.55-2.36,15.09-3.84,22.59l-2.19,11.24-.55,2.81-.63,2.79-1.25,5.59c-3.22,14.93-7.29,29.67-11.52,44.34-4.52,14.59-9.22,29.13-14.7,43.39-5.27,14.34-11.33,28.37-17.54,42.33-6.48,13.83-13.12,27.6-20.49,40.98-7.18,13.49-15.07,26.57-23.12,39.55-8.28,12.84-16.78,25.53-25.82,37.85-9.06,12.3-18.58,24.26-28.57,35.82-9.98,11.57-20.46,22.7-31.45,33.3-10.99,10.61-22.48,20.71-34.49,30.14-12.03,9.41-24.61,18.13-37.7,26"/>
          <path class="cls-4" d="M1989.72,947.12c-26.13,15.8-54.63,27.83-84.42,34.68l-5.61,1.16c-1.87.37-3.73.82-5.62,1.09l-5.65.93c-.94.15-1.88.32-2.83.45l-2.84.35c-7.56,1.06-15.2,1.62-22.83,1.72-7.64.13-15.28-.36-22.85-1.33-7.57-.98-15.1-2.43-22.42-4.61-7.33-2.14-14.5-4.84-21.37-8.19-6.83-3.41-13.35-7.45-19.42-12.09-12.19-9.22-22-21.48-28.67-35.21-6.66-13.72-10.29-29.05-9.53-44.33.33-7.63,1.88-15.2,4.46-22.38,2.64-7.15,6.38-13.98,11.52-19.65,1.29-1.41,2.65-2.76,4.11-3.98,1.45-1.24,3-2.37,4.63-3.37,3.23-2.03,6.84-3.46,10.57-4.27,1.86-.42,3.77-.61,5.68-.71,1.91-.05,3.82.08,5.71.37,1.88.34,3.73.83,5.5,1.55,1.74.76,3.48,1.6,4.97,2.8,3.11,2.21,5.67,5.17,7.5,8.52,1.81,3.37,2.91,7.08,3.52,10.84,1.22,7.56.41,15.32-1.46,22.7-.93,3.71-2.35,7.27-3.8,10.8-1.49,3.51-3.1,6.98-4.91,10.34-3.58,6.74-7.79,13.15-12.48,19.18-9.4,12.06-20.74,22.5-33.03,31.55-12.3,9.07-25.58,16.75-39.25,23.53-13.69,6.78-27.8,12.67-42.1,18.05-7.16,2.66-14.32,5.33-21.6,7.63-7.27,2.35-14.48,4.88-21.88,6.79l-11.04,3.08c-1.83.55-3.7.94-5.56,1.38l-5.58,1.29-11.16,2.59-11.26,2.11"/>
          <path class="cls-2" d="M1578.72,1012.51c-30.04,5.58-60.57,8.35-91.12,8.62-30.55.22-61.1-2.1-91.35-6.26-60.56-8.38-119.86-24.15-177.85-43.27-116.13-38.2-227.51-89.37-343.92-126.77"/>
          <path class="cls-3" d="M535.31,332.33c-18.34,44.12-36.99,88.14-53.34,133.05-8.14,22.46-15.81,45.11-22.41,68.07l-2.46,8.61c-.81,2.88-1.48,5.79-2.2,8.68-1.42,5.8-2.77,11.62-3.92,17.48-2.3,11.71-3.75,23.66-3.17,35.61"/>
          <path class="cls-7" d="M766.18,549.7c1.1,5.87,1.82,11.81,2.24,17.77.42,5.96.49,11.95.01,17.9-.46,5.95-1.34,11.88-2.87,17.66-1.52,5.78-3.86,11.3-6.2,16.79-2.35,5.49-4.51,11.07-7.33,16.35-2.78,5.28-6.09,10.3-10.02,14.81-7.86,8.99-18.05,15.96-29.34,19.89-5.63,2-11.54,3.15-17.49,3.63-5.93.67-11.97.66-17.85-.45-5.89-1.02-11.58-3.07-16.82-5.94-2.63-1.42-5.1-3.12-7.48-4.92-2.36-1.83-4.56-3.86-6.66-5.99-8.3-8.63-14.09-19.47-17.46-30.91-.88-2.86-1.51-5.78-2.08-8.71-.24-1.47-.5-2.94-.72-4.42-.19-1.48-.3-2.97-.37-4.46-.19-5.97.25-11.97,1.47-17.82"/>
          <path class="cls-6" d="M447.88,605.05c.45,5.95.96,11.93,2.43,17.73,1.48,5.78,3.71,11.41,7.03,16.39,3.28,4.98,7.61,9.3,12.7,12.43,5.08,3.16,10.89,5.04,16.8,5.86,2.96.42,5.95.56,8.94.46,2.98-.09,5.97-.36,8.91-.87,5.9-.91,11.71-2.47,17.26-4.67,11.12-4.4,21.29-10.95,30.53-18.49,4.63-3.77,9.07-7.78,13.34-11.96,4.25-4.2,8.33-8.57,12.28-13.05,7.89-8.97,15.2-18.44,22.14-28.16,6.92-9.73,13.47-19.73,19.75-29.9l2.34-3.82,2.28-3.85,4.55-7.72,9.02-15.48"/>
          <path class="cls-4" d="M638.19,519.94c11.94-20.7,23.59-41.56,34.58-62.78,10.75-21.33,19.31-43.76,31.57-64.32,11.87-20.81,18.07-44.24,29.59-65.23,2.88-5.23,6.07-10.3,9.54-15.16,1.74-2.43,3.53-4.82,5.43-7.12,1.92-2.29,4.06-4.38,6.05-6.61,1.99-2.21,3.86-4.6,5.08-7.33.62-1.36.99-2.82,1.24-4.29.16-1.48.21-2.99-.08-4.46-.26-1.47-.87-2.89-1.82-4.04-.93-1.17-2.23-2.01-3.62-2.55-2.81-1.05-5.96-.91-8.81-.09"/>
          <path class="cls-2" d="M746.94,275.96c-2.87.82-5.54,2.41-7.52,4.65-2.01,2.22-3.54,4.83-4.76,7.55-1.23,2.72-2.15,5.57-3.01,8.43-.86,2.86-1.53,5.78-2.12,8.7-2.34,11.73-2.91,23.71-3.96,35.6-1.03,11.9-1.69,23.84-1.72,35.79-.03,11.95.65,23.9,2.2,35.75,1.55,11.85,3.87,23.59,7.01,35.12,3.09,11.55,7.18,22.79,11.46,33.94,4.26,11.16,8.72,22.25,12.37,33.63l2.73,8.53c.45,1.42.93,2.84,1.34,4.27l1.23,4.31c1.57,5.76,2.91,11.59,3.98,17.47"/>
          <path class="cls-3" d="M389.16,303.3c-8.54-4.38-16.04-10.45-24.14-15.54-4.03-2.6-8.39-4.62-12.83-6.41l-3.4-1.16c-1.14-.37-2.25-.81-3.42-1.09l-3.47-.94-1.73-.46-1.76-.37c-9.35-2.06-18.92-3.08-28.49-3.24-9.57-.14-19.17.57-28.57,2.46-1.18.21-2.33.55-3.49.82-1.16.3-2.33.54-3.48.89l-3.42,1.1c-.57.19-1.14.36-1.71.56l-1.66.69c-4.51,1.61-8.68,4.17-12.12,7.5-1.72,1.66-3.25,3.53-4.43,5.62-1.18,2.08-1.98,4.41-2.08,6.8-.1,2.39.5,4.82,1.75,6.86,1.21,2.08,3.04,3.73,5.07,4.98,4.11,2.49,8.9,3.61,13.64,4.1l3.57.36c1.19.09,2.39.1,3.59.16l1.79.07,1.8-.03,3.59-.09c4.78-.32,9.54-.88,14.23-1.87,4.68-1.01,9.32-2.22,13.83-3.85"/>
          <path class="cls-7" d="M208.68,570c6.74-17.98,18.17-33.89,31.72-47.37,13.58-13.53,29.33-24.76,46.06-34.05,16.76-9.27,34.54-16.71,52.93-22.03,18.39-5.29,37.42-8.66,56.59-8.88"/>
          <path class="cls-6" d="M312.73,310.92c4.5-1.63,8.93-3.46,13.22-5.6,2.17-1.01,4.26-2.19,6.37-3.31,1.05-.58,2.07-1.2,3.11-1.79,1.04-.6,2.07-1.2,3.07-1.85,4.12-2.45,7.91-5.4,11.97-7.94,2.05-1.22,4.25-2.28,6.62-2.65,2.38-.42,4.82.1,7,1.06,17.09,8.59,33.26,19.3,46.92,32.76,6.81,6.72,13.01,14.1,18.19,22.16,1.25,2.04,2.61,4.02,3.73,6.14l1.75,3.14c.6,1.04,1.08,2.14,1.62,3.2,2.16,4.27,4.14,8.64,5.88,13.1,3.49,8.92,6.08,18.18,7.82,27.6.88,4.71,1.54,9.45,2.01,14.22.48,4.76.71,9.55.99,14.33"/>
          <path class="cls-4" d="M453.02,425.47c.9,19.13-.73,38.38-4.84,57.09-4.13,18.7-10.65,36.87-19.28,53.97l-3.34,6.36-3.61,6.21c-2.33,4.19-5.04,8.14-7.63,12.17-1.26,2.04-2.71,3.94-4.1,5.9l-4.19,5.83-4.46,5.63c-1.5,1.86-2.93,3.79-4.55,5.55-12.43,14.57-26.49,27.76-41.95,39.06"/>
          <path class="cls-2" d="M355.07,623.23c-15.52,11.22-32.52,20.42-50.48,27.05-1.12.42-2.23.88-3.36,1.26l-3.43,1.07-6.86,2.13c-2.3.67-4.65,1.15-6.97,1.73l-3.49.84c-1.16.29-2.32.58-3.51.72-9.44,1.51-19.09,2.19-28.62,1.13-4.76-.53-9.47-1.51-14-3.08-4.51-1.6-8.81-3.81-12.68-6.63-3.86-2.82-7.37-6.17-10.08-10.13-2.69-3.97-4.7-8.36-6.14-12.92-1.48-4.56-2.25-9.32-2.69-14.08-.44-4.77-.45-9.57-.09-14.35.35-4.77.97-9.53,1.95-14.22.51-2.34,1.01-4.68,1.78-6.95l1.06-3.43c.32-1.16.83-2.25,1.23-3.37"/>
          <path class="cls-3" d="M957.52,280.65c8.13-30.23,17.53-60.15,29-89.29,5.77-14.55,12.04-28.91,18.91-42.97,3.4-7.04,6.87-14.08,11.03-20.72,4.16-6.62,9.04-12.86,15.02-17.93"/>
          <path class="cls-7" d="M806.53,591.11l-4.95,3.15-5.1,2.9-2.55,1.45-2.63,1.31-5.26,2.61-5.4,2.3-2.7,1.14-2.77.98-5.54,1.95-5.65,1.59c-15.09,4.21-30.91,5.48-46.52,4.65-15.64-.84-31.1-3.92-46.11-8.33-15.03-4.41-29.61-10.22-43.88-16.64"/>
          <path class="cls-6" d="M1032.11,109.26c1.56-1.15,3.38-2.1,5.35-2.21,1.97-.13,3.9.79,5.24,2.21,1.36,1.41,2.29,3.19,2.95,5.03.56,1.87,1.08,3.76,1.37,5.7,1.26,7.75.52,15.67-.84,23.35-1.36,7.71-3.48,15.26-5.62,22.79-2.1,7.54-4.53,14.99-7.17,22.36-5.31,14.73-11.29,29.2-16.82,43.85-5.59,14.62-11.06,29.29-16.53,43.96"/>
          <path class="cls-4" d="M1000.03,276.29c-5.47,14.67-10.93,29.34-16.52,43.96-5.58,14.63-11.36,29.18-17,43.78-11.34,29.15-23.14,58.28-38.81,85.43"/>
          <path class="cls-2" d="M927.69,449.46c-15.54,27.18-33.4,53.04-53.36,77.16-4.97,6.04-10.11,11.96-15.34,17.77-5.2,5.85-10.65,11.47-16.18,17.01l-4.24,4.06-2.12,2.03c-.72.67-1.45,1.31-2.18,1.97l-4.37,3.92-4.5,3.77-2.25,1.88c-.76.62-1.54,1.2-2.32,1.8l-4.65,3.59-4.79,3.39-2.4,1.69c-.81.54-1.65,1.05-2.47,1.59"/>
          <path class="cls-3" d="M47.26,10c1.58,1.29,2.4,3.2,3.37,4.93l2.88,5.28,5.77,10.56,10.64,21.58c.87,1.81,1.81,3.58,2.62,5.41l2.48,5.48,4.96,10.96,2.48,5.48c.83,1.82,1.66,3.65,2.4,5.51l4.59,11.12,4.59,11.12c.79,1.84,1.47,3.73,2.17,5.61l2.11,5.63,4.22,11.27,2.11,5.63c.68,1.89,1.29,3.8,1.94,5.69l7.65,22.81,6.91,23.04c8.76,30.86,15.84,62.19,21.17,93.82l1.88,11.88.94,5.94c.32,1.98.63,3.96.85,5.95l2.96,23.88c.28,1.99.41,3.99.6,5.98l.54,5.99,1.07,11.98.54,5.99.35,6.01.67,12.01"/>
          <path class="cls-7" d="M354.33,57.57c3.48-1.99,7.09-3.75,10.67-5.56l5.46-2.51c1.81-.87,3.7-1.55,5.54-2.33,7.45-2.96,15.07-5.56,22.93-7.17,7.84-1.65,15.85-2.62,23.87-2.54,4,.21,8.02.29,11.98.98,3.96.64,7.85,1.73,11.55,3.27,3.7,1.55,7.19,3.59,10.31,6.12,3.11,2.54,5.81,5.56,8.04,8.89,4.47,6.68,7.02,14.49,8.2,22.41,1.18,7.94,1.08,16.03.15,23.99l-.39,2.98-.47,2.97-1.17,5.9c-.86,3.92-1.75,7.83-2.8,11.7-8.22,31.04-22.59,60.27-40.94,86.55-9.3,13.08-19.9,25.17-31.02,36.73-11.12,11.57-22.76,22.61-34.2,33.85"/>
          <path class="cls-6" d="M152.82,378.17c1.55,32.04,1.34,64.16-.61,96.18-2.46,31.98-6.58,63.88-13.65,95.18-3.49,15.65-7.77,31.14-12.88,46.34-5.09,15.2-10.96,30.2-18.67,44.28-3.83,7.05-8.16,13.83-13.06,20.17-2.42,3.2-5.07,6.21-7.79,9.16-2.8,2.87-5.66,5.69-8.75,8.25-6.26,5.02-13.74,8.48-21.58,10.12-3.92.81-7.96,1.16-11.96.86-2-.14-3.99-.43-5.93-.92-1.94-.48-3.86-1.12-5.67-1.99"/>
          <path class="cls-4" d="M32.28,705.79c-3.64-1.69-6.9-4.18-9.46-7.26-.34-.37-.64-.77-.93-1.18-.29-.41-.61-.8-.88-1.22l-1.59-2.56-1.41-2.65-1.25-2.73c-3.15-7.4-4.63-15.38-5.48-23.34-.42-3.99-.69-7.99-.91-11.99-.22-4-.47-8.01-.31-12.02.24-8.02,1.38-15.98,2.18-23.95,1.28-15.99,3.64-31.89,6.87-47.59,1.6-7.86,3.5-15.65,5.3-23.47.99-3.88,1.91-7.79,2.99-11.65l1.58-5.8,1.67-5.78c9.03-30.8,20.79-60.71,33.59-90.12,6.56-14.63,12.6-29.52,20.1-43.71,7.34-14.26,15.34-28.17,23.41-42.03"/>
          <path class="cls-2" d="M107.76,346.74c8.06-13.86,16.16-27.71,23.68-41.89,1.92-3.52,3.68-7.12,5.53-10.68l5.28-10.81c3.45-7.25,7.5-14.18,11.68-21.02,4.2-6.83,8.79-13.42,13.44-19.95,4.72-6.49,9.58-12.86,14.56-19.15,9.97-12.57,20.36-24.79,30.66-37.08,5.16-6.14,10.24-12.35,15.45-18.44,5.19-6.12,10.51-12.12,15.89-18.06,5.39-5.94,10.92-11.75,16.51-17.5,5.64-5.7,11.33-11.35,17.2-16.82,5.86-5.48,11.81-10.85,17.93-16.04,6.09-5.22,12.34-10.25,18.69-15.14,6.33-4.92,12.9-9.54,19.54-14.03,6.65-4.48,13.48-8.7,20.5-12.57"/>
          <path class="cls-3" d="M956.19,283.94c-7.68,26.83-13.63,54.12-18.82,81.53-5.22,27.41-9.75,54.94-14.53,82.43-2.4,13.74-4.84,27.48-7.5,41.17-2.67,13.69-5.66,27.32-8.33,41.02-2.67,13.69-5.08,27.45-6.48,41.33-1.39,13.87-1.95,27.87-.77,41.78"/>
          <path class="cls-7" d="M1158.5,612.4c-.96,6.91-1.35,13.9-.92,20.87.44,6.95,1.71,13.9,4.34,20.38,2.61,6.45,6.72,12.39,12.29,16.63,2.76,2.13,5.82,3.86,9.05,5.18,3.27,1.22,6.7,2,10.16,2.36,6.95.72,14-.19,20.68-2.14,6.7-1.95,13.12-4.79,19.22-8.16,12.22-6.76,23.3-15.4,33.6-24.79,20.58-18.9,38.05-40.87,54.21-63.58,16.2-22.72,31.25-46.24,47.65-68.81"/>
          <path class="cls-6" d="M899.9,614.61c.59,6.95,1.55,13.89,3.45,20.61,1.88,6.69,4.6,13.27,8.91,18.78,2.16,2.73,4.7,5.19,7.66,7.05,2.95,1.86,6.25,3.15,9.68,3.8,6.89,1.33,14,.16,20.61-1.94.83-.28,1.66-.53,2.48-.84l2.44-.94c.82-.31,1.6-.68,2.41-1.02l1.2-.52c.4-.18.76-.42,1.14-.63,1.51-.87,3.04-1.71,4.54-2.6l4.41-2.82c5.79-3.89,11.29-8.19,16.56-12.77,10.49-9.21,19.98-19.49,28.86-30.25,4.43-5.39,8.69-10.91,12.85-16.51,4.12-5.63,8.18-11.3,12.08-17.09,7.84-11.54,15.29-23.34,22.51-35.28,7.23-11.93,14.22-24.01,21.17-36.1l10.45-18.13c3.49-6.04,6.75-12.21,10.03-18.36"/>
          <path class="cls-4" d="M1103.33,469.05c9.87-18.68,19.19-37.66,28.18-56.78l6.68-14.37,6.54-14.43,13.08-28.87c4.32-9.64,8.65-19.29,12.03-29.31,1.71-5,3.08-10.11,4.16-15.28,1.05-5.18,1.58-10.46,1.64-15.73.03-5.29-.71-10.56-1.99-15.68l-1.16-3.79c-.37-1.27-.93-2.47-1.5-3.66-1.17-2.36-2.67-4.6-4.71-6.3-2.02-1.72-4.6-2.69-7.21-2.98-2.63-.28-5.31.11-7.77,1.07-4.94,1.87-8.85,6.43-9.52,11.72-2.74,13.26-1.05,27.44,5.04,39.55,1.51,3.03,3.28,5.93,5.33,8.63,1.99,2.73,4.17,5.35,6.68,7.63,1.26,1.13,2.59,2.18,4.01,3.1.36.22.71.46,1.08.67l.55.32.51.38c.67.51,1.37.99,2.07,1.47,2.82,1.87,5.82,3.47,8.86,4.96"/>
          <path class="cls-2" d="M1175.91,341.36c3.13,1.54,6.31,2.98,9.42,4.56,3.09,1.63,6.24,3.11,9.36,4.68l9.38,4.64,9.4,4.59c6.25,3.1,12.44,6.35,18.22,10.26,5.75,3.91,11.18,8.49,15.12,14.28,1.95,2.89,3.5,6.06,4.48,9.41.98,3.35,1.39,6.85,1.27,10.34-.03.87-.12,1.74-.18,2.61-.08.87-.24,1.73-.35,2.59-.26,1.72-.59,3.44-.97,5.14-.75,3.41-1.74,6.76-2.88,10.05-2.3,6.58-5.2,12.95-8.43,19.13l-2.36,4.67-2.47,4.61c-1.66,3.07-3.29,6.15-5.03,9.17-13.64,24.34-28.92,47.73-42.16,72.3-6.62,12.27-12.74,24.84-17.84,37.83-1.21,3.27-2.45,6.53-3.63,9.81l-3.16,9.98c-1.77,6.74-3.74,13.46-4.6,20.39"/>
          <path class="cls-7" d="M562.59,260.99c-.81-2.36-1.59-4.74-2.09-7.2-.48-2.45-.69-4.96-.71-7.45-.04-4.98.94-10.08,3.52-14.39,1.27-2.16,2.92-4.07,4.77-5.75,1.86-1.67,4.19-2.79,6.63-3.32,2.44-.54,5.01-.51,7.43.13,2.4.66,4.69,1.91,6.35,3.79,1.61,1.8,2.52,4.16,2.71,6.55.21,2.41-.27,4.81-.97,7.11-1.45,4.59-3.82,8.87-6.8,12.65-2.98,3.77-6.43,7.2-10.4,9.93-3.95,2.75-8.38,4.82-13.06,5.95"/>
          <path class="cls-3" d="M1531.42,335.51c-4.1.02-8.21.37-12.27.99-4.06.63-8.08,1.48-12.02,2.66-7.88,2.32-15.46,5.61-22.6,9.67-14.31,8.1-26.92,18.93-38.11,30.92-5.61,6-10.86,12.32-15.82,18.87-2.52,3.24-4.91,6.58-7.33,9.9-2.35,3.37-4.73,6.71-6.98,10.15-2.31,3.39-4.48,6.88-6.7,10.33-2.13,3.51-4.31,6.99-6.34,10.56-2.1,3.53-4.05,7.14-6.04,10.74-.98,1.81-1.91,3.64-2.86,5.45l-1.42,2.73-1.36,2.77"/>
          <path class="cls-7" d="M1584.69,383.1c-.43-4.08-1.05-8.15-2.09-12.13-.22-1-.52-1.98-.82-2.97-.3-.98-.56-1.98-.93-2.93l-1.05-2.9c-.42-.94-.8-1.89-1.25-2.81-1.85-3.65-4.52-6.94-7.92-9.25-3.37-2.37-7.62-3.36-11.69-2.92-4.08.57-7.85,2.6-10.89,5.34-3.06,2.74-5.64,5.99-7.74,9.51-4.23,7.07-6.48,15.14-7.76,23.22-2.39,16.23-1.14,33.09,4.31,48.6,1.37,3.87,3.06,7.63,5.11,11.19,2.03,3.57,4.45,6.92,7.28,9.9,5.59,6.01,13.03,10.32,21.07,12.01"/>
          <path class="cls-6" d="M1391.21,461.98c-1.85,3.67-3.52,7.42-5.24,11.15-.83,1.88-1.61,3.78-2.42,5.66-.82,1.88-1.57,3.79-2.31,5.71-1.54,3.81-2.88,7.69-4.24,11.56-1.24,3.91-2.54,7.81-3.56,11.79-2.16,7.92-3.92,15.95-5.56,23.99-1.61,8.05-3,16.15-4.11,24.28-2.21,16.26-3.41,32.72-2.58,49.13l.38,6.15c.17,2.04.39,4.09.71,6.11.61,4.06,1.57,8.07,2.81,11.98,2.52,7.8,6.27,15.3,11.68,21.5"/>
          <path class="cls-4" d="M1376.77,651c2.68,3.11,5.81,5.83,9.25,8.06,3.47,2.18,7.27,3.88,11.26,4.87,1.98.54,4.02.85,6.06,1.03l3.06.32c1.02.06,2.05.07,3.08.11,1.03.01,2.05.1,3.08.05l3.08-.13,1.54-.07c.51-.03,1.02-.11,1.53-.16l3.06-.35c8.15-1.06,16.06-3.6,23.53-6.98,7.47-3.4,14.51-7.72,21.11-12.61,13.18-9.83,24.6-21.82,34.88-34.61,10.25-12.83,19.38-26.54,27.62-40.74"/>
          <path class="cls-2" d="M1528.9,569.78c16.45-28.43,29.73-58.69,39.53-90.04,2.41-7.85,4.71-15.74,6.68-23.71,1.05-3.97,1.93-7.98,2.87-11.98l1.29-6.02c.43-2.01.86-4.02,1.23-6.04,1.53-8.06,3.2-16.12,3.97-24.3.43-4.08.7-8.18.74-12.29.06-4.1-.07-8.22-.51-12.3"/>
          <path class="cls-3" d="M879.7,277.69c26.26,2.05,52.55,3.87,78.89,4.73"/>
          <path class="cls-8" d="M1037.93,282.15c26.32-1.11,52.59-3.24,78.8-5.9"/>
          <path class="cls-5" d="M958.92,282.43c13.16.49,26.34.62,39.51.63,13.17-.06,26.34-.36,39.5-.9"/>
        </g>
      </g>
    </g>
  </g>
</svg>