<?xml version="1.0" encoding="UTF-8"?>
<svg id="Layer_2" data-name="Layer 2" xmlns="http://www.w3.org/2000/svg" xmlns:xlink="http://www.w3.org/1999/xlink" viewBox="0 0 203.67 60.57">
  <defs>
    <style>
      .cls-1 {
        fill: none;
      }

      .cls-2 {
        clip-path: url(#clippath-1);
      }

      .cls-3 {
        fill: #1e282d;
      }

      .cls-4 {
        clip-path: url(#clippath);
      }
    </style>
    <clipPath id="clippath">
      <rect class="cls-1" width="203.67" height="60.57"/>
    </clipPath>
    <clipPath id="clippath-1">
      <rect class="cls-1" y="0" width="203.67" height="60.57"/>
    </clipPath>
  </defs>
  <g id="Layer_1-2" data-name="Layer 1">
    <g id="komfi_logo_dakr" data-name="komfi logo dakr">
      <g class="cls-4">
        <g class="cls-2">
          <path class="cls-3" d="M179.6,2.79c2.78,0,5.58,1.52,5.58,7.16,0,3.7,3,6.7,6.7,6.7s6.7-3,6.7-6.7c0,0,.83-9.72-17.72-9.77-.05,0-.1-.01-.15-.01-.05,0-.09,0-.14.01h-.97c-8.84,0-17.76,7.41-17.76,16.58v6.74h-3.1c-.65,0-1.25.44-1.36,1.09-.13.82.49,1.53,1.29,1.53.12,0,.24.01.35.04h1.07c.97,0,1.75.78,1.75,1.75v24.41c0,2.45-1.99,4.44-4.44,4.44h-1.27c-2.45,0-4.44-1.99-4.44-4.44v-19.42c0-6.56-2.57-13.66-11-13.66-4.84,0-8.51,2.25-11.32,5.34-1.17,1.25-1.96,2.43-2.28,2.92-.1.15-.27.25-.45.25-.24,0-.45-.16-.51-.39-.29-1.17-.71-2.26-1.26-3.25-.01-.02-.02-.03-.03-.04-1.64-2.88-4.46-4.83-8.81-4.83-5.99,0-10.45,3.65-13.96,8.22-.14.19-.37.3-.6.3-.52,0-.88-.5-.72-1l1.89-5.89c.11-.35.01-.72-.25-.97l-.79-.76c-.32-.31-.81-.34-1.18-.1-3.55,2.36-6.79,3.74-11.87,4.59-.46.08-.8.47-.8.93,0,.52.43.94.95.94,4.28,0,4.9,1.74,4.9,4.73v22.08c0,3.58-1.8,4.1-4.97,4.64-.51.09-.88.53-.88,1.04h0c0,.59.47,1.06,1.06,1.06h17.75c.58,0,1.05-.47,1.05-1.06v-.02c0-.51-.36-.94-.86-1.04-2.81-.54-4.72-1.08-4.72-4.63v-21.64c3.54-4.7,7.36-5.76,9.84-5.76,4.26,0,6.56,3.19,6.56,8.42v18.98c0,3.59-1.8,4.1-5.06,4.64-.51.08-.88.53-.88,1.04,0,.58.47,1.06,1.06,1.06h18.02c.58,0,1.06-.47,1.06-1.06h0c0-.52-.37-.96-.88-1.05-3.1-.54-4.89-1.06-4.89-4.64v-21.64c3.64-4.7,7.09-5.76,9.76-5.76,4.52,0,6.65,3.19,6.65,8.42v18.98c0,3.59-1.8,4.1-4.99,4.64-.49.08-.86.51-.86,1.02v.05c0,.57.46,1.03,1.03,1.03h40.28c.57,0,1.03-.46,1.03-1.03,0-.52-.39-.97-.91-1.03-4.84-.56-8.22-1.01-8.22-4.68v-26.19h7.05c.65,0,1.26-.44,1.36-1.09.13-.82-.5-1.53-1.29-1.53h-5.26c-1.05,0-1.89-.85-1.89-1.89v-6.92c0-9.77,5.94-11.88,9.01-11.88"/>
          <path class="cls-3" d="M202.79,56.94c-3.04-.54-4.97-1.07-4.97-4.63v-30.33c0-.29-.12-.57-.34-.77l-.89-.81c-.37-.33-.87-.29-1.31-.07-4.35,2.2-6.62,2.49-10.87,3.27-.5.09-.86.52-.86,1.02s.37.94.88,1.02c4.35.71,4.98,2.46,4.98,5.46v21.2c0,3.57-1.93,4.1-4.97,4.63-.51.09-.88.53-.88,1.05,0,.59.48,1.06,1.06,1.06h18.01c.59,0,1.06-.47,1.06-1.06,0-.51-.37-.96-.88-1.05"/>
          <path class="cls-3" d="M66.18,18.65c-11.76,0-21.29,9.38-21.29,20.96s9.53,20.96,21.29,20.96,21.29-9.38,21.29-20.96-9.53-20.96-21.29-20.96M66.18,56.7c-6.79,0-12.29-7.65-12.29-17.09s5.5-17.09,12.29-17.09,12.29,7.65,12.29,17.09-5.5,17.09-12.29,17.09"/>
          <path class="cls-3" d="M29.78,32.86h5.59c3.92,0,7.1-3.18,7.1-7.1s-3.18-7.1-7.1-7.1-7.1,3.18-7.1,7.1v5.59c0,.84.68,1.51,1.51,1.51"/>
          <path class="cls-3" d="M46.25,56.98c-4.69-3.1-11.94-12.15-16.29-17.86-2.33-3.07-4.09-4.88-7.93-4.92h-1.86s-.13,0-.13,0h-4.47V2.03c0-.31-.13-.61-.35-.83l-.93-.89c-.38-.36-.96-.42-1.4-.13C9.01,2.72,5.93,4.14.99,5.07c-.44.08-.83.39-.94.82-.19.68.26,1.33.91,1.44,4.87.78,6.16,2.7,6.16,6.01v38.31c0,3.93-1.58,4.5-5.02,5.09-.63.11-1.07.71-.95,1.37.1.56.63.95,1.21.95h17.75c.57,0,1.1-.38,1.21-.95.12-.66-.32-1.26-.95-1.37-3.45-.59-4.78-1.17-4.78-5.09v-13.56c.02-1.23,1.6-1.75,2.34-.76l2.82,3.75v-.03c3.27,4.34,7.26,9.61,9.31,12.24.95,1.22,4.22,5.75,8.58,5.75h7.12c1.07,0,1.39-1.47.5-2.06"/>
        </g>
      </g>
    </g>
  </g>
</svg>