<svg width="19" height="19" viewBox="0 0 19 19" fill="none" xmlns="http://www.w3.org/2000/svg">
<circle cx="9.15234" cy="9.6377" r="9" fill="#F8D9E2"/>
<path d="M12.3101 10.3633C12.3101 12.1097 10.8949 13.5254 9.14921 13.5254C7.40348 13.5254 5.98828 12.1097 5.98828 10.3633C5.98828 8.61697 7.40348 7.20126 9.14921 7.20126C10.8949 7.20126 12.3101 8.61697 12.3101 10.3633Z" stroke="#FF7BA2" stroke-width="0.75" stroke-miterlimit="10" stroke-linecap="round" stroke-linejoin="round"/>
<path d="M9.15292 12.2441C8.11656 12.2441 7.27344 11.4007 7.27344 10.364C7.27344 9.32729 8.11656 8.48385 9.15292 8.48385C10.1893 8.48385 11.0324 9.32729 11.0324 10.364C11.0324 11.4007 10.1893 12.2441 9.15292 12.2441Z" stroke="#FF7BA2" stroke-width="0.75" stroke-miterlimit="10" stroke-linecap="round" stroke-linejoin="round"/>
<path d="M4.73047 13.0342V7.84246" stroke="#FF7BA2" stroke-width="0.75" stroke-miterlimit="10" stroke-linecap="round" stroke-linejoin="round"/>
<path d="M4.72874 7.84277C4.32769 7.84277 4.00257 7.51755 4.00257 7.11635C4.00257 7.11635 3.91731 5.74897 4.72874 5.74897C5.54016 5.74897 5.4549 7.11635 5.4549 7.11635C5.4549 7.51755 5.12978 7.84277 4.72874 7.84277Z" stroke="#FF7BA2" stroke-width="0.75" stroke-miterlimit="10" stroke-linecap="round" stroke-linejoin="round"/>
<path d="M13.6328 13.0977V7.90593" stroke="#FF7BA2" stroke-width="0.75" stroke-miterlimit="10" stroke-linecap="round" stroke-linejoin="round"/>
<path d="M14.301 5.74897V7.20181C14.301 7.55582 14.0141 7.84277 13.6603 7.84277C13.3064 7.84277 13.0195 7.55582 13.0195 7.20181V5.74897" stroke="#FF7BA2" stroke-width="0.75" stroke-miterlimit="10" stroke-linecap="round" stroke-linejoin="round"/>
</svg>
