<svg width="19" height="19" viewBox="0 0 19 19" fill="none" xmlns="http://www.w3.org/2000/svg">
<circle cx="9.15625" cy="9.15479" r="9" fill="#ECF6FA"/>
<path d="M9.1582 4.56494C9.37761 4.56509 9.61947 4.66577 9.88086 4.90771C10.1436 5.15096 10.4046 5.51797 10.6455 5.99658C11.0802 6.86016 11.4232 8.03144 11.6182 9.32471H6.69727C6.89224 8.03144 7.23519 6.86016 7.66992 5.99658C7.91088 5.51797 8.17179 5.15096 8.43457 4.90771C8.69615 4.66559 8.93867 4.56494 9.1582 4.56494Z" stroke="#191C1D" stroke-width="0.75"/>
<path d="M8.28613 13.7451H10.0303C10.2053 13.7451 10.3562 13.6692 10.4375 13.5762C10.5086 13.4946 10.524 13.4106 10.4775 13.3125C10.2165 12.7617 9.7122 12.4141 9.1582 12.4141C8.60425 12.4141 8.09993 12.7617 7.83887 13.3125C7.79237 13.4107 7.80867 13.4946 7.87988 13.5762C7.96113 13.6691 8.11117 13.7451 8.28613 13.7451Z" stroke="#191C1D" stroke-width="0.75"/>
<path d="M7.16113 9.5C8.76472 9.5 9.26366 9.5 11.1533 9.5C11.3284 9.50013 11.4807 9.57303 11.5723 9.67285C11.6584 9.76679 11.6911 9.88082 11.6543 10.0078C11.3061 11.2108 10.2958 12.0801 9.15723 12.0801C8.01863 12.0801 7.00835 11.2108 6.66016 10.0078C6.62339 9.88078 6.6561 9.76678 6.74219 9.67285C6.83374 9.57302 6.98597 9.50009 7.16113 9.5Z" stroke="#191C1D" stroke-width="0.75"/>
</svg>
