<svg width="19" height="19" viewBox="0 0 19 19" fill="none" xmlns="http://www.w3.org/2000/svg">
<circle cx="9.5" cy="9.52637" r="9" fill="#D5E6C7"/>
<path d="M9.50195 4.93652C9.72136 4.93667 9.96322 5.03736 10.2246 5.2793C10.4874 5.52254 10.7483 5.88955 10.9893 6.36816C11.424 7.23175 11.7669 8.40302 11.9619 9.69629H7.04102C7.23599 8.40302 7.57894 7.23175 8.01367 6.36816C8.25463 5.88955 8.51554 5.52254 8.77832 5.2793C9.0399 5.03717 9.28242 4.93652 9.50195 4.93652Z" stroke="#AEA13A" stroke-width="0.75"/>
<path d="M8.62988 14.1162H10.374C10.5491 14.1162 10.6999 14.0403 10.7812 13.9473C10.8524 13.8657 10.8677 13.7817 10.8213 13.6836C10.5602 13.1328 10.0559 12.7852 9.50195 12.7852C8.948 12.7852 8.44368 13.1328 8.18262 13.6836C8.13612 13.7818 8.15242 13.8657 8.22363 13.9473C8.30488 14.0402 8.45492 14.1162 8.62988 14.1162Z" stroke="#AEA13A" stroke-width="0.75"/>
<path d="M7.50488 9.87207C9.10847 9.87207 9.60741 9.87207 11.4971 9.87207C11.6722 9.8722 11.8245 9.9451 11.916 10.0449C12.0021 10.1389 12.0348 10.2529 11.998 10.3799C11.6499 11.5829 10.6396 12.4521 9.50098 12.4521C8.36238 12.4521 7.3521 11.5829 7.00391 10.3799C6.96714 10.2529 6.99985 10.1389 7.08594 10.0449C7.17749 9.94509 7.32972 9.87216 7.50488 9.87207Z" stroke="#AEA13A" stroke-width="0.75"/>
</svg>
