<svg width="17" height="16" viewBox="0 0 17 16" fill="none" xmlns="http://www.w3.org/2000/svg">
<path d="M14.5509 14.8542H2.94829C1.91809 14.8542 1.08293 14.019 1.08293 12.9888V12.9453H16.4163V12.9888C16.4163 14.019 15.5811 14.8542 14.5509 14.8542Z" stroke="#1E282D" stroke-miterlimit="10"/>
<path d="M6.87208 12.9447H4.4001C3.55107 12.9447 2.86282 12.2564 2.86282 11.4074V5.98047H8.90807V9.40047" stroke="#1E282D" stroke-miterlimit="10"/>
<path d="M2.86338 7.57129H2.27594C1.61705 7.57129 1.08293 8.10544 1.08293 8.76433C1.08293 9.42322 1.61705 9.95734 2.27594 9.95734H2.86338" stroke="#1E282D" stroke-miterlimit="10"/>
<path d="M8.82298 9.40039H8.82514C9.67897 9.40039 10.3712 10.0926 10.3712 10.9464V11.0282" stroke="#1E282D" stroke-miterlimit="10"/>
<path d="M11.3723 9.40039H11.3745C12.2283 9.40039 12.9205 10.0926 12.9205 10.9464V11.0282" stroke="#1E282D" stroke-miterlimit="10"/>
<path d="M8.96304 12.9446H13.6898C14.6685 12.9446 15.4619 12.1512 15.4619 11.1725C15.4619 10.1938 14.6685 9.40039 13.6898 9.40039H8.96304C7.98431 9.40039 7.19092 10.1938 7.19092 11.1725C7.19092 12.1512 7.98431 12.9446 8.96304 12.9446Z" stroke="#1E282D" stroke-miterlimit="10"/>
<path d="M5.88709 4.70838V4.23123C5.88709 3.66317 5.42658 3.20266 4.85851 3.20266H4.52932C3.96126 3.20266 3.50075 2.74215 3.50075 2.17408C3.50075 1.60602 3.96126 1.14551 4.52932 1.14551H7.31903" stroke="#1E282D" stroke-miterlimit="10"/>
</svg>
