<svg width="19" height="19" viewBox="0 0 19 19" fill="none" xmlns="http://www.w3.org/2000/svg">
<circle cx="9.65625" cy="9.0498" r="9" fill="#FBD1C0"/>
<path d="M9.07415 8.50977H4.65625" stroke="#F2672E" stroke-width="0.75"/>
<path d="M8.07415 6.62207H5.65625C5.10397 6.62207 4.65625 7.06979 4.65625 7.62207V11.5988C4.65625 12.1511 5.10397 12.5988 5.65625 12.5988H8.07415C8.62643 12.5988 9.07415 12.1511 9.07415 11.5988V7.62207C9.07415 7.06979 8.62643 6.62207 8.07415 6.62207Z" stroke="#F2672E" stroke-width="0.75"/>
<path d="M11.6966 6.22658C11.8833 6.31635 12.1073 6.23783 12.1971 6.05119C12.2869 5.86456 12.2084 5.64048 12.0217 5.5507L11.6966 6.22658ZM9.64256 5.81718L9.32328 5.62051L9.64256 5.81718ZM11.8592 5.88864L12.0217 5.5507L11.09 5.10255L10.9275 5.44048L10.7649 5.77842L11.6966 6.22658L11.8592 5.88864ZM9.64256 5.81718L9.32328 5.62051L5.14556 12.4027L5.46484 12.5993L5.78413 12.796L9.96185 6.01386L9.64256 5.81718ZM10.9275 5.44048L11.09 5.10255C10.4554 4.79727 9.69264 5.02088 9.32328 5.62051L9.64256 5.81718L9.96185 6.01386C10.1297 5.7413 10.4764 5.63966 10.7649 5.77842L10.9275 5.44048Z" fill="#F2672E"/>
<path d="M12.6324 8.55353L13.0968 8.33733C13.601 8.10263 14.2103 8.32233 14.3821 8.85126C14.7878 10.0999 14.6751 10.9328 14.4684 11.9467C14.3488 12.5332 13.7424 12.8936 13.1705 12.7168L12.5058 12.5112C12.3133 12.4517 12.1074 12.4517 11.9149 12.5112L11.2502 12.7168C10.6783 12.8936 10.0717 12.5333 9.95005 11.9472C9.74398 10.9543 9.63348 10.1551 10.0429 8.87118C10.2139 8.3352 10.829 8.10697 11.339 8.34438L11.7883 8.55353C12.0559 8.67807 12.3648 8.67807 12.6324 8.55353Z" stroke="#F2672E" stroke-width="0.75"/>
<path d="M12.2695 8.5412C12.2957 8.3055 12.3703 7.99749 12.5112 7.70236M12.5112 7.70236C12.671 7.36759 12.9548 7.04942 13.344 6.8722C13.8608 6.63686 14.2883 7.31755 13.7876 7.58549C13.4063 7.78953 12.9168 7.76414 12.5112 7.70236Z" stroke="#F2672E" stroke-width="0.75"/>
</svg>
