<svg width="19" height="19" viewBox="0 0 19 19" fill="none" xmlns="http://www.w3.org/2000/svg">
<circle cx="9.3125" cy="9.67822" r="9" fill="#FBD1C0"/>
<path d="M8.7304 9.1377H4.3125" stroke="#191C1D" stroke-width="0.75"/>
<path d="M7.7304 7.25049H5.3125C4.76022 7.25049 4.3125 7.6982 4.3125 8.25049V11.0183C4.3125 12.2382 5.30148 13.2272 6.52145 13.2272C7.74142 13.2272 8.7304 12.2382 8.7304 11.0183V8.25049C8.7304 7.6982 8.28268 7.25049 7.7304 7.25049Z" stroke="#191C1D" stroke-width="0.75"/>
<path d="M11.3529 6.855C11.5395 6.94477 11.7636 6.86625 11.8534 6.67961C11.9431 6.49297 11.8646 6.2689 11.678 6.17912L11.3529 6.855ZM9.29881 6.4456L8.97953 6.24892L9.29881 6.4456ZM11.5154 6.51706L11.678 6.17912L10.7463 5.73096L10.5837 6.0689L10.4212 6.40684L11.3529 6.855L11.5154 6.51706ZM9.29881 6.4456L8.97953 6.24892L4.80181 13.0311L5.12109 13.2278L5.44038 13.4244L9.6181 6.64228L9.29881 6.4456ZM10.5837 6.0689L10.7463 5.73096C10.1116 5.42569 9.34889 5.6493 8.97953 6.24892L9.29881 6.4456L9.6181 6.64228C9.78599 6.36972 10.1327 6.26808 10.4212 6.40684L10.5837 6.0689Z" fill="#191C1D"/>
<path d="M14.154 9.87783C14.4141 10.8983 14.3119 11.6499 14.1331 12.5341C14.0099 13.1429 13.3797 13.5167 12.7863 13.3332C12.1872 13.1479 11.5461 13.1479 10.947 13.3332C10.3535 13.5167 9.72294 13.1429 9.5977 12.5345C9.41855 11.6642 9.31822 10.937 9.58709 9.88858C9.78194 9.12878 10.6512 8.81309 11.3623 9.14411C11.682 9.29295 12.0529 9.29217 12.3726 9.14332C13.084 8.81221 13.9602 9.11752 14.154 9.87783Z" stroke="#191C1D" stroke-width="0.75"/>
<path d="M11.9258 9.16913C11.9519 8.93343 12.0265 8.62542 12.1674 8.33029M12.1674 8.33029C12.3272 7.99552 12.611 7.67735 13.0002 7.50013C13.517 7.26479 13.9446 7.94548 13.4439 8.21342C13.0626 8.41746 12.573 8.39207 12.1674 8.33029Z" stroke="#191C1D" stroke-width="0.75"/>
</svg>
