<svg width="117" height="128" viewBox="0 0 117 128" fill="none" xmlns="http://www.w3.org/2000/svg">
<rect x="10.75" y="16" width="96" height="96" rx="24" fill="#FBD1C0"/>
<g opacity="0.5">
<mask id="mask0_13446_37192" style="mask-type:luminance" maskUnits="userSpaceOnUse" x="34" y="40" width="49" height="48">
<path d="M82.25 40.5V87.5H35.25V40.5H82.25Z" fill="white" stroke="#1E282D"/>
</mask>
<g mask="url(#mask0_13446_37192)">
<mask id="mask1_13446_37192" style="mask-type:luminance" maskUnits="userSpaceOnUse" x="34" y="40" width="49" height="48">
<path d="M82 87.25V40.75H35.5V87.25H82Z" fill="white" stroke="white" stroke-width="1.5"/>
</mask>
<g mask="url(#mask1_13446_37192)">
<path d="M50.1183 81.9087H41.6638C38.6652 81.9087 36.2344 79.4778 36.2344 76.4793V53.9361H55.5477V76.4793C55.5477 79.4778 53.1169 81.9087 50.1183 81.9087Z" stroke="#F2672E" stroke-width="1.5" stroke-miterlimit="10" stroke-linecap="round" stroke-linejoin="round"/>
<path d="M36.2344 63.1255H55.5477" stroke="#F2672E" stroke-width="1.5" stroke-miterlimit="10" stroke-linecap="round" stroke-linejoin="round"/>
<path d="M75.2802 81.1925L73.0689 80.7103C71.5467 80.3784 69.9877 80.3784 68.4655 80.7103L66.2266 81.1985C64.0676 81.6693 61.9559 80.1243 61.2972 77.592L60.973 76.3457C59.983 72.5395 59.983 68.4572 60.973 64.6511C61.7785 61.5543 64.5521 59.8915 67.0759 60.9922L68.094 61.4362C69.8217 62.1897 71.7126 62.1897 73.4402 61.4362L74.4251 61.0067C76.9615 59.9006 79.747 61.5857 80.538 64.7047L80.5583 64.7845C81.5026 68.5081 81.5026 72.4887 80.5583 76.2122L80.219 77.5499C79.5718 80.1017 77.451 81.6659 75.2802 81.1925Z" stroke="#F2672E" stroke-width="1.5" stroke-miterlimit="10" stroke-linecap="round" stroke-linejoin="round"/>
<path d="M71.1094 61.9927L72.3735 57.2132" stroke="#F2672E" stroke-width="1.5" stroke-miterlimit="10" stroke-linecap="round" stroke-linejoin="round"/>
<path d="M72.375 57.2155C72.375 57.2155 74.6394 51.0017 79.7048 53.1454C79.7048 53.1454 78.2552 59.6116 72.375 57.2155Z" stroke="#F2672E" stroke-width="1.5" stroke-miterlimit="10" stroke-linecap="round" stroke-linejoin="round"/>
<path d="M40.4844 81.7798L59.7495 46.0921L67.187 50.1637" stroke="#F2672E" stroke-width="1.5" stroke-miterlimit="10" stroke-linecap="round" stroke-linejoin="round"/>
</g>
</g>
</g>
</svg>
