<svg width="19" height="19" viewBox="0 0 19 19" fill="none" xmlns="http://www.w3.org/2000/svg">
<circle cx="9.53125" cy="9.12207" r="9" fill="#C3DEEA"/>
<path d="M12.5581 13.1218H6.5045C5.96699 13.1218 5.53125 12.6344 5.53125 12.0332V12.0078H13.5314V12.0332C13.5314 12.6344 13.0957 13.1218 12.5581 13.1218Z" stroke="#1C8CBB" stroke-width="0.75" stroke-miterlimit="10"/>
<path d="M8.54886 12.0086H7.2591C6.81613 12.0086 6.45703 11.607 6.45703 11.1115V7.94434H9.61113V9.94024" stroke="#1C8CBB" stroke-width="0.75" stroke-miterlimit="10"/>
<path d="M6.4602 8.87207H6.1537C5.80993 8.87207 5.53125 9.1838 5.53125 9.56833C5.53125 9.95285 5.80993 10.2646 6.1537 10.2646H6.4602" stroke="#1C8CBB" stroke-width="0.75" stroke-miterlimit="10"/>
<path d="M9.57031 9.93945H9.57144C10.0169 9.93945 10.3781 10.3434 10.3781 10.8417V10.8894" stroke="#1C8CBB" stroke-width="0.75" stroke-miterlimit="10"/>
<path d="M10.8984 9.93945H10.8996C11.3451 9.93945 11.7062 10.3434 11.7062 10.8417V10.8894" stroke="#1C8CBB" stroke-width="0.75" stroke-miterlimit="10"/>
<path d="M9.64335 12.0079H12.1095C12.6202 12.0079 13.0341 11.5448 13.0341 10.9737C13.0341 10.4025 12.6202 9.93945 12.1095 9.93945H9.64335C9.1327 9.93945 8.71875 10.4025 8.71875 10.9737C8.71875 11.5448 9.1327 12.0079 9.64335 12.0079Z" stroke="#1C8CBB" stroke-width="0.75" stroke-miterlimit="10"/>
<path d="M8.04194 7.20135V6.92289C8.04194 6.59137 7.80167 6.32262 7.50529 6.32262H7.33353C7.03715 6.32262 6.79688 6.05386 6.79688 5.72234C6.79688 5.39082 7.03715 5.12207 7.33353 5.12207H8.78906" stroke="#1C8CBB" stroke-width="0.75" stroke-miterlimit="10"/>
</svg>
