<svg width="25" height="24" viewBox="0 0 25 24" fill="none" xmlns="http://www.w3.org/2000/svg">
<path d="M18.5509 18.8542H6.94829C5.91809 18.8542 5.08293 18.019 5.08293 16.9888V16.9453H20.4163V16.9888C20.4163 18.019 19.5811 18.8542 18.5509 18.8542Z" stroke="#1E282D" stroke-miterlimit="10"/>
<path d="M10.8721 16.9447H8.4001C7.55107 16.9447 6.86282 16.2564 6.86282 15.4074V9.98047H12.9081V13.4005" stroke="#1E282D" stroke-miterlimit="10"/>
<path d="M6.86338 11.5713H6.27594C5.61705 11.5713 5.08293 12.1054 5.08293 12.7643C5.08293 13.4232 5.61705 13.9573 6.27594 13.9573H6.86338" stroke="#1E282D" stroke-miterlimit="10"/>
<path d="M12.823 13.4004H12.8251C13.679 13.4004 14.3712 14.0926 14.3712 14.9464V15.0282" stroke="#1E282D" stroke-miterlimit="10"/>
<path d="M15.3723 13.4004H15.3745C16.2283 13.4004 16.9205 14.0926 16.9205 14.9464V15.0282" stroke="#1E282D" stroke-miterlimit="10"/>
<path d="M12.963 16.9446H17.6898C18.6685 16.9446 19.4619 16.1512 19.4619 15.1725C19.4619 14.1938 18.6685 13.4004 17.6898 13.4004H12.963C11.9843 13.4004 11.1909 14.1938 11.1909 15.1725C11.1909 16.1512 11.9843 16.9446 12.963 16.9446Z" stroke="#1E282D" stroke-miterlimit="10"/>
<path d="M9.88709 8.70838V8.23123C9.88709 7.66317 9.42658 7.20266 8.85851 7.20266H8.52932C7.96126 7.20266 7.50075 6.74215 7.50075 6.17408C7.50075 5.60602 7.96126 5.14551 8.52932 5.14551H11.319" stroke="#1E282D" stroke-miterlimit="10"/>
</svg>
