<svg width="19" height="19" viewBox="0 0 19 19" fill="none" xmlns="http://www.w3.org/2000/svg">
<circle cx="9.1875" cy="9.75" r="9" fill="#C3DEEA"/>
<path d="M12.2144 13.7497H6.16075C5.62324 13.7497 5.1875 13.2623 5.1875 12.6611V12.6357H13.1876V12.6611C13.1876 13.2623 12.7519 13.7497 12.2144 13.7497Z" stroke="#1E282D" stroke-width="0.75" stroke-miterlimit="10"/>
<path d="M8.20511 12.6366H6.91535C6.47238 12.6366 6.11328 12.2349 6.11328 11.7394V8.57227H9.26738V10.5682" stroke="#1E282D" stroke-width="0.75" stroke-miterlimit="10"/>
<path d="M6.11645 9.5H5.80995C5.46618 9.5 5.1875 9.81173 5.1875 10.1963C5.1875 10.5808 5.46618 10.8925 5.80995 10.8925H6.11645" stroke="#1E282D" stroke-width="0.75" stroke-miterlimit="10"/>
<path d="M9.22656 10.5679H9.22769C9.67318 10.5679 10.0343 10.9718 10.0343 11.4701V11.5178" stroke="#1E282D" stroke-width="0.75" stroke-miterlimit="10"/>
<path d="M10.5547 10.5679H10.5558C11.0013 10.5679 11.3625 10.9718 11.3625 11.4701V11.5178" stroke="#1E282D" stroke-width="0.75" stroke-miterlimit="10"/>
<path d="M9.2996 12.6363H11.7658C12.2764 12.6363 12.6904 12.1733 12.6904 11.6021C12.6904 11.0309 12.2764 10.5679 11.7658 10.5679H9.2996C8.78895 10.5679 8.375 11.0309 8.375 11.6021C8.375 12.1733 8.78895 12.6363 9.2996 12.6363Z" stroke="#1E282D" stroke-width="0.75" stroke-miterlimit="10"/>
<path d="M7.69819 7.82928V7.55082C7.69819 7.2193 7.45792 6.95055 7.16154 6.95055H6.98978C6.6934 6.95055 6.45312 6.68179 6.45312 6.35027C6.45312 6.01875 6.6934 5.75 6.98978 5.75H8.44531" stroke="#1E282D" stroke-width="0.75" stroke-miterlimit="10"/>
</svg>
