<svg width="128" height="128" viewBox="0 0 128 128" fill="none" xmlns="http://www.w3.org/2000/svg">
<rect x="16" y="16" width="96" height="96" rx="24" fill="#F1E4BE"/>
<g opacity="0.55">
<path d="M81.0324 84.1252H46.9652C43.9404 84.1252 41.4882 81.673 41.4882 78.6482V78.5205H86.5094V78.6482C86.5094 81.673 84.0573 84.1252 81.0324 84.1252Z" stroke="#E0AA26" stroke-width="1.5" stroke-miterlimit="10"/>
<path d="M58.4861 78.5204H51.228C48.7351 78.5204 46.7143 76.4995 46.7143 74.0067V58.0723H64.4641V68.114" stroke="#E0AA26" stroke-width="1.5" stroke-miterlimit="10"/>
<path d="M46.7159 62.7432H44.9911C43.0565 62.7432 41.4882 64.3115 41.4882 66.2461C41.4882 68.1807 43.0565 69.749 44.9911 69.749H46.7159" stroke="#E0AA26" stroke-width="1.5" stroke-miterlimit="10"/>
<path d="M64.2143 68.1133H64.2206C66.7276 68.1133 68.76 70.1456 68.76 72.6527V72.8927" stroke="#E0AA26" stroke-width="1.5" stroke-miterlimit="10"/>
<path d="M71.6996 68.1133H71.706C74.213 68.1133 76.2454 70.1456 76.2454 72.6527V72.8927" stroke="#E0AA26" stroke-width="1.5" stroke-miterlimit="10"/>
<path d="M64.6255 78.5198H78.5041C81.3778 78.5198 83.7073 76.1902 83.7073 73.3165C83.7073 70.4428 81.3778 68.1133 78.5041 68.1133H64.6255C61.7518 68.1133 59.4223 70.4428 59.4223 73.3165C59.4223 76.1902 61.7518 78.5198 64.6255 78.5198Z" stroke="#E0AA26" stroke-width="1.5" stroke-miterlimit="10"/>
<path d="M55.594 54.3362V52.9352C55.594 51.2673 54.2419 49.9151 52.5739 49.9151H51.6074C49.9394 49.9151 48.5873 48.563 48.5873 46.8951C48.5873 45.2271 49.9394 43.875 51.6074 43.875H59.7984" stroke="#E0AA26" stroke-width="1.5" stroke-miterlimit="10"/>
</g>
</svg>
