<svg width="129" height="128" viewBox="0 0 129 128" fill="none" xmlns="http://www.w3.org/2000/svg">
<rect x="16.25" y="16" width="96" height="96" rx="24" fill="#C3DEEA"/>
<g opacity="0.5">
<path d="M81.2825 84.1247H47.2153C44.1905 84.1247 41.7383 81.6725 41.7383 78.6477V78.52H86.7595V78.6477C86.7595 81.6725 84.3074 84.1247 81.2825 84.1247Z" stroke="#1C8CBB" stroke-width="1.5" stroke-miterlimit="10"/>
<path d="M58.7367 78.5199H51.4786C48.9857 78.5199 46.9648 76.499 46.9648 74.0062V58.0718H64.7147V68.1135" stroke="#1C8CBB" stroke-width="1.5" stroke-miterlimit="10"/>
<path d="M46.966 62.7432H45.2412C43.3066 62.7432 41.7383 64.3115 41.7383 66.2461C41.7383 68.1807 43.3066 69.749 45.2412 69.749H46.966" stroke="#1C8CBB" stroke-width="1.5" stroke-miterlimit="10"/>
<path d="M64.4648 68.1138H64.4712C66.9782 68.1138 69.0106 70.1461 69.0106 72.6532V72.8932" stroke="#1C8CBB" stroke-width="1.5" stroke-miterlimit="10"/>
<path d="M71.9492 68.1138H71.9556C74.4626 68.1138 76.495 70.1461 76.495 72.6532V72.8932" stroke="#1C8CBB" stroke-width="1.5" stroke-miterlimit="10"/>
<path d="M64.8751 78.5203H78.7537C81.6274 78.5203 83.9569 76.1907 83.9569 73.317C83.9569 70.4433 81.6274 68.1138 78.7537 68.1138H64.8751C62.0014 68.1138 59.6719 70.4433 59.6719 73.317C59.6719 76.1907 62.0014 78.5203 64.8751 78.5203Z" stroke="#1C8CBB" stroke-width="1.5" stroke-miterlimit="10"/>
<path d="M55.8426 54.3362V52.9352C55.8426 51.2673 54.4905 49.9151 52.8226 49.9151H51.856C50.1881 49.9151 48.8359 48.563 48.8359 46.8951C48.8359 45.2271 50.1881 43.875 51.856 43.875H60.0471" stroke="#1C8CBB" stroke-width="1.5" stroke-miterlimit="10"/>
</g>
</svg>
