<svg width="19" height="19" viewBox="0 0 19 19" fill="none" xmlns="http://www.w3.org/2000/svg">
<circle cx="9.35938" cy="9.67822" r="9" fill="#FDEBC6"/>
<path d="M11.1328 9.66016L12.9694 7.71361" stroke="#191C1D" stroke-width="0.75" stroke-miterlimit="10"/>
<path d="M12.9701 9.66012H5.74609C5.74609 11.2296 6.79775 12.5383 8.1949 12.839V13.5532H10.5213V12.839C11.9184 12.5383 12.9701 11.2296 12.9701 9.66012Z" stroke="#191C1D" stroke-width="0.75" stroke-miterlimit="10" stroke-linecap="square"/>
<path d="M7.2135 5.80304C7.2135 5.80304 6.60129 6.45189 7.2135 7.10074C7.8257 7.74959 7.2135 8.39844 7.2135 8.39844" stroke="#191C1D" stroke-width="0.75" stroke-miterlimit="10"/>
<path d="M8.74475 5.80304C8.74475 5.80304 8.13254 6.45189 8.74475 7.10074C9.35695 7.74959 8.74475 8.39844 8.74475 8.39844" stroke="#191C1D" stroke-width="0.75" stroke-miterlimit="10"/>
<path d="M10.2721 5.80304C10.2721 5.80304 9.65989 6.45189 10.2721 7.10074C10.8843 7.74959 10.2721 8.39844 10.2721 8.39844" stroke="#191C1D" stroke-width="0.75" stroke-miterlimit="10"/>
</svg>
