<svg width="17" height="16" viewBox="0 0 17 16" fill="none" xmlns="http://www.w3.org/2000/svg">
<mask id="mask0_6288_12638" style="mask-type:luminance" maskUnits="userSpaceOnUse" x="0" y="0" width="17" height="16">
<path d="M0.75 -3.05176e-05H16.75V16H0.75V-3.05176e-05Z" fill="white"/>
</mask>
<g mask="url(#mask0_6288_12638)">
<path d="M12.3743 7.875L16.1243 4.12499" stroke="#234070" stroke-miterlimit="10"/>
<path d="M16.1243 7.87498H1.37427C1.37427 10.8986 3.52155 13.4198 6.37428 13.999V15.375H11.1243V13.999C13.977 13.4198 16.1243 10.8986 16.1243 7.87498Z" stroke="#234070" stroke-miterlimit="10" stroke-linecap="square"/>
<path d="M4.37417 0.445302C4.37417 0.445302 3.12417 1.6953 4.37417 2.94531C5.62417 4.19531 4.37417 5.44531 4.37417 5.44531" stroke="#234070" stroke-miterlimit="10"/>
<path d="M7.49917 0.445302C7.49917 0.445302 6.24917 1.6953 7.49917 2.94531C8.74917 4.19531 7.49917 5.44531 7.49917 5.44531" stroke="#234070" stroke-miterlimit="10"/>
<path d="M10.6251 0.445302C10.6251 0.445302 9.37512 1.6953 10.6251 2.94531C11.8751 4.19531 10.6251 5.44531 10.6251 5.44531" stroke="#234070" stroke-miterlimit="10"/>
</g>
</svg>
