<svg width="19" height="19" viewBox="0 0 19 19" fill="none" xmlns="http://www.w3.org/2000/svg">
<circle cx="9.70312" cy="9.0498" r="9" fill="#FDEBC6"/>
<path d="M11.4766 9.03125L13.3132 7.0847" stroke="#F9BF42" stroke-width="0.75" stroke-miterlimit="10"/>
<path d="M13.3138 9.0317H6.08984C6.08984 10.6012 7.1415 11.9099 8.53865 12.2106V12.9248H10.865V12.2106C12.2622 11.9099 13.3138 10.6012 13.3138 9.0317Z" stroke="#F9BF42" stroke-width="0.75" stroke-miterlimit="10" stroke-linecap="square"/>
<path d="M7.55725 5.17511C7.55725 5.17511 6.94504 5.82396 7.55725 6.47281C8.16945 7.12166 7.55725 7.77051 7.55725 7.77051" stroke="#F9BF42" stroke-width="0.75" stroke-miterlimit="10"/>
<path d="M9.0885 5.17511C9.0885 5.17511 8.47629 5.82396 9.0885 6.47281C9.7007 7.12166 9.0885 7.77051 9.0885 7.77051" stroke="#F9BF42" stroke-width="0.75" stroke-miterlimit="10"/>
<path d="M10.6158 5.17511C10.6158 5.17511 10.0036 5.82396 10.6158 6.47281C11.228 7.12166 10.6158 7.77051 10.6158 7.77051" stroke="#F9BF42" stroke-width="0.75" stroke-miterlimit="10"/>
</svg>
